<svg width="116" height="116" viewBox="0 0 116 116" fill="none" xmlns="http://www.w3.org/2000/svg">
<g clip-path="url(#clip0_44_2)">
<path d="M110.866 0.35849H5.49351C2.66202 0.35849 0.358643 2.66167 0.358643 5.49259V110.866C0.358643 113.697 2.66208 116 5.49351 116H110.866C113.697 116 116 113.697 116 110.866V5.49259C116 2.66167 113.697 0.35849 110.866 0.35849ZM5.49351 4.41926H110.866C111.458 4.41926 111.939 4.90086 111.939 5.49259V18.0935H4.41942V5.49259C4.41942 4.90086 4.90127 4.41926 5.49351 4.41926ZM110.866 111.939H5.49351C4.90127 111.939 4.41942 111.458 4.41942 110.866V22.1543H111.939V110.866C111.939 111.458 111.458 111.939 110.866 111.939Z" fill="#4F7FB2"/>
<path d="M97.8703 74.1709H21.521C18.4822 74.1709 16.0099 76.6432 16.0099 79.682V99.9859C16.0099 103.025 18.4822 105.497 21.521 105.497H97.8702C100.909 105.497 103.381 103.025 103.381 99.9859V79.682C103.381 76.6432 100.909 74.1709 97.8703 74.1709ZM99.3206 99.9859C99.3206 100.785 98.67 101.436 97.8703 101.436H21.521C20.7213 101.436 20.0707 100.785 20.0707 99.9859V79.6819C20.0707 78.882 20.7214 78.2316 21.521 78.2316H97.8702C98.6699 78.2316 99.3206 78.882 99.3206 79.6819L99.3206 99.9859Z" fill="#4F7FB2"/>
<path d="M21.521 58.8949H41.213C44.2517 58.8949 46.724 56.4224 46.724 53.3836V33.6917C46.724 30.6529 44.2518 28.1806 41.213 28.1806H21.521C18.4822 28.1806 16.0099 30.6529 16.0099 33.6917V53.3836C16.01 56.4224 18.4822 58.8949 21.521 58.8949ZM20.0707 33.6917C20.0707 32.892 20.7214 32.2414 21.521 32.2414H41.213C42.0126 32.2414 42.6633 32.892 42.6633 33.6917V53.3836C42.6633 54.1833 42.0126 54.834 41.213 54.834H21.521C20.7213 54.834 20.0707 54.1833 20.0707 53.3836V33.6917Z" fill="#4F7FB2"/>
<path d="M101.351 64.2122H18.0404C16.919 64.2122 16.01 65.1213 16.01 66.2425C16.01 67.3642 16.919 68.2729 18.0404 68.2729H101.351C102.472 68.2729 103.381 67.3642 103.381 66.2425C103.381 65.1214 102.472 64.2122 101.351 64.2122Z" fill="#4F7FB2"/>
<path d="M101.351 53.6252H55.3293C54.2078 53.6252 53.2988 54.5342 53.2988 55.6557C53.2988 56.7771 54.2078 57.686 55.3293 57.686H101.351C102.473 57.686 103.382 56.7771 103.382 55.6557C103.382 54.5343 102.473 53.6252 101.351 53.6252Z" fill="#4F7FB2"/>
<path d="M101.351 41.443H55.3293C54.2078 41.443 53.2988 42.352 53.2988 43.4734C53.2988 44.5948 54.2078 45.5037 55.3293 45.5037H101.351C102.473 45.5037 103.382 44.5948 103.382 43.4734C103.382 42.352 102.473 41.443 101.351 41.443Z" fill="#4F7FB2"/>
<path d="M101.351 29.2606H55.3293C54.2078 29.2606 53.2988 30.1696 53.2988 31.291C53.2988 32.4124 54.2078 33.3214 55.3293 33.3214H101.351C102.473 33.3214 103.382 32.4124 103.382 31.291C103.382 30.1696 102.473 29.2606 101.351 29.2606Z" fill="#4F7FB2"/>
<path d="M13.2054 14.3228C15.0076 14.3228 16.4686 12.8619 16.4686 11.0597C16.4686 9.2575 15.0076 7.79654 13.2054 7.79654C11.4032 7.79654 9.94226 9.2575 9.94226 11.0597C9.94226 12.8619 11.4032 14.3228 13.2054 14.3228Z" fill="#4F7FB2"/>
<path d="M23.5024 14.3228C25.3046 14.3228 26.7655 12.8619 26.7655 11.0597C26.7655 9.2575 25.3046 7.79654 23.5024 7.79654C21.7002 7.79654 20.2393 9.2575 20.2393 11.0597C20.2393 12.8619 21.7002 14.3228 23.5024 14.3228Z" fill="#4F7FB2"/>
<path d="M33.7994 14.3228C35.6016 14.3228 37.0625 12.8619 37.0625 11.0597C37.0625 9.2575 35.6016 7.79654 33.7994 7.79654C31.9972 7.79654 30.5363 9.2575 30.5363 11.0597C30.5363 12.8619 31.9972 14.3228 33.7994 14.3228Z" fill="#4F7FB2"/>
</g>
<defs>
<clipPath id="clip0_44_2">
<rect width="116" height="116" fill="white"/>
</clipPath>
</defs>
</svg>
