<svg width="43" height="38" viewBox="0 0 43 38" fill="none" xmlns="http://www.w3.org/2000/svg">
<path d="M40.1532 1C41.4166 1 42.3697 2.15992 41.8599 4.31738L35.6757 34.8234C35.2435 36.9924 33.9911 37.5144 32.2622 36.5052L17.5109 25.1032C17.4537 25.0602 17.4071 25.0036 17.3749 24.9381C17.3428 24.8725 17.326 24.7999 17.326 24.7262C17.326 24.6525 17.3428 24.5799 17.3749 24.5144C17.4071 24.4488 17.4537 24.3922 17.5109 24.3493L34.5452 8.24952C35.321 7.53037 34.379 7.18239 33.3594 7.83195L11.9805 21.9482C11.9157 21.9925 11.8421 22.0207 11.7653 22.0307C11.6884 22.0408 11.6105 22.0324 11.5372 22.0062L2.46033 19.002C0.44325 18.3872 0.44325 16.9373 2.91473 15.905L39.2333 1.24358C39.5213 1.09897 39.8341 1.01614 40.1532 1Z" stroke="black" stroke-width="1.5" stroke-linecap="round" stroke-linejoin="round"/>
</svg>
